<svg xmlns="http://www.w3.org/2000/svg" version="1.1" xmlns:xlink="http://www.w3.org/1999/xlink" width="1000" height="1000"><style>
    #light-icon {
      display: inline;
    }
    #dark-icon {
      display: none;
    }

    @media (prefers-color-scheme: dark) {
      #light-icon {
        display: none;
      }
      #dark-icon {
        display: inline;
      }
    }
  </style><g id="light-icon"><svg xmlns="http://www.w3.org/2000/svg" version="1.1" xmlns:xlink="http://www.w3.org/1999/xlink" width="1000" height="1000"><g clip-path="url(#SvgjsClipPath1320)"><rect width="1000" height="1000" fill="#ffffff"></rect><g transform="matrix(0.9765625,0,0,0.9765625,0,0)"><svg xmlns="http://www.w3.org/2000/svg" version="1.1" xmlns:xlink="http://www.w3.org/1999/xlink" width="1024" height="1024"><svg width="1024" height="1024" viewBox="0 0 1024 1024" fill="none" xmlns="http://www.w3.org/2000/svg">
<path d="M1024 0H0V1024H1024V0Z" fill="#3F3F3F"></path>
<rect x="96" y="97" width="832" height="825" rx="140" fill="#272727"></rect>
<path d="M606.244 862.089C676.465 840.886 710.277 821.623 771.5 783.952C707.948 807.494 673.5 817.952 598 810.152C550.5 805.244 521 787.452 480 767.802C434.164 743.295 424 741.175 397 725.952C367.616 703.521 349 692.452 333.6 681.752C333.6 681.752 253 635.39 187 628.252C121 621.114 98.5 628 96 628L94.5 769.728C96 813.728 103 846.5 139 883C170.141 914.574 208.5 924.5 260.5 921.728L446 922C504.599 894.862 540.271 879.928 606.244 862.089Z" fill="#191919"></path>
<path opacity="0.6" d="M336 941C336 816.736 235.264 716 111 716C70.6354 716 32.7533 726.629 0 745.241V1024H320.196C330.394 998.318 336 970.314 336 941Z" fill="#222222"></path>
<path opacity="0.99" d="M797.992 221.637C846.69 279.534 876.497 292.35 928 309C934.263 210.782 924.055 170.369 882 133C839.794 97.8894 810.334 93.6344 755 96.9998C757.337 145.671 767.492 173.597 797.992 221.637Z" fill="#171717"></path>
<path opacity="0.3" d="M101 350C250.669 350 372 230.012 372 82C372 53.3991 367.47 25.8446 359.08 0H0V330.768C29.7528 342.593 62.1171 349.349 96 349.955C97.663 349.985 99.3298 350 101 350Z" fill="#464646"></path>
<path d="M688.35 696C774.836 656.561 827.645 606.471 928 474V602C877.654 683.836 850.5 729 775.5 783C705 809.5 647.5 821.5 567 804.5C504.5 786.5 397.5 726 397.5 726L688.5 725L688.35 696Z" fill="#2D2D2D"></path>
<path d="M214 542C160 519 134.627 514.663 96 509V628C130.791 623.498 154.311 625.509 197 629.35C239.855 639.702 263.343 643.649 336 682V628C294.037 592.925 269.5 573 214 542Z" fill="#2D2D2D"></path>
<path d="M336.5 267L335.5 726H686.5L686 626.5L447.5 626V542H649.5V447H447.5V366H684.5V267H336.5Z" fill="#D9D9D9"></path>
<path opacity="0.3" d="M755 90C755 214.264 855.736 315 980 315C995.058 315 1009.77 313.521 1024 310.7V0H773.722C761.68 27.5608 755 58.0003 755 90Z" fill="#323232"></path>
<path opacity="0.3" d="M101 350C250.669 350 372 230.012 372 82C372 53.3991 367.47 25.8446 359.08 0H0V330.768C29.7528 342.593 62.1171 349.394 96 350C97.663 350.03 99.3298 350 101 350Z" fill="#464646"></path>
</svg></svg></g></g><defs><clipPath id="SvgjsClipPath1320"><rect width="1000" height="1000" x="0" y="0" rx="250" ry="250"></rect></clipPath></defs></svg></g><g id="dark-icon"><svg xmlns="http://www.w3.org/2000/svg" version="1.1" xmlns:xlink="http://www.w3.org/1999/xlink" width="1000" height="1000"><g clip-path="url(#SvgjsClipPath1321)"><rect width="1000" height="1000" fill="#ffffff"></rect><g transform="matrix(0.9765625,0,0,0.9765625,0,0)"><svg xmlns="http://www.w3.org/2000/svg" version="1.1" xmlns:xlink="http://www.w3.org/1999/xlink" width="1024" height="1024"><svg width="1024" height="1024" viewBox="0 0 1024 1024" fill="none" xmlns="http://www.w3.org/2000/svg">
<path d="M1024 0H0V1024H1024V0Z" fill="#3F3F3F"></path>
<rect x="96" y="97" width="832" height="825" rx="140" fill="#272727"></rect>
<path d="M606.244 862.089C676.465 840.886 710.277 821.623 771.5 783.952C707.948 807.494 673.5 817.952 598 810.152C550.5 805.244 521 787.452 480 767.802C434.164 743.295 424 741.175 397 725.952C367.616 703.521 349 692.452 333.6 681.752C333.6 681.752 253 635.39 187 628.252C121 621.114 98.5 628 96 628L94.5 769.728C96 813.728 103 846.5 139 883C170.141 914.574 208.5 924.5 260.5 921.728L446 922C504.599 894.862 540.271 879.928 606.244 862.089Z" fill="#191919"></path>
<path opacity="0.6" d="M336 941C336 816.736 235.264 716 111 716C70.6354 716 32.7533 726.629 0 745.241V1024H320.196C330.394 998.318 336 970.314 336 941Z" fill="#222222"></path>
<path opacity="0.99" d="M797.992 221.637C846.69 279.534 876.497 292.35 928 309C934.263 210.782 924.055 170.369 882 133C839.794 97.8894 810.334 93.6344 755 96.9998C757.337 145.671 767.492 173.597 797.992 221.637Z" fill="#171717"></path>
<path opacity="0.3" d="M101 350C250.669 350 372 230.012 372 82C372 53.3991 367.47 25.8446 359.08 0H0V330.768C29.7528 342.593 62.1171 349.349 96 349.955C97.663 349.985 99.3298 350 101 350Z" fill="#464646"></path>
<path d="M688.35 696C774.836 656.561 827.645 606.471 928 474V602C877.654 683.836 850.5 729 775.5 783C705 809.5 647.5 821.5 567 804.5C504.5 786.5 397.5 726 397.5 726L688.5 725L688.35 696Z" fill="#2D2D2D"></path>
<path d="M214 542C160 519 134.627 514.663 96 509V628C130.791 623.498 154.311 625.509 197 629.35C239.855 639.702 263.343 643.649 336 682V628C294.037 592.925 269.5 573 214 542Z" fill="#2D2D2D"></path>
<path d="M336.5 267L335.5 726H686.5L686 626.5L447.5 626V542H649.5V447H447.5V366H684.5V267H336.5Z" fill="#D9D9D9"></path>
<path opacity="0.3" d="M755 90C755 214.264 855.736 315 980 315C995.058 315 1009.77 313.521 1024 310.7V0H773.722C761.68 27.5608 755 58.0003 755 90Z" fill="#323232"></path>
<path opacity="0.3" d="M101 350C250.669 350 372 230.012 372 82C372 53.3991 367.47 25.8446 359.08 0H0V330.768C29.7528 342.593 62.1171 349.394 96 350C97.663 350.03 99.3298 350 101 350Z" fill="#464646"></path>
</svg></svg></g></g><defs><clipPath id="SvgjsClipPath1321"><rect width="1000" height="1000" x="0" y="0" rx="250" ry="250"></rect></clipPath></defs></svg></g></svg>